<svg xmlns="http://www.w3.org/2000/svg" width="512" height="512" viewBox="0 -200 512 974"><path fill="#e73a3c" d="M129.5 2.1c-37.8 4-85.1 21.5-118 43.7l-10 6.8-.3 260.7L1 574h203v-83H88V328.6c0-178.6-.3-170.5 6.1-186.4 11.9-30 39.1-48.4 71.4-48.4 31.6 0 59.2 18.6 71.1 48 6 15 5.8 11.8 6.2 84.4l.3 66.7 20.7.3c11.4.2 29.6.2 40.4 0l19.7-.3.3-67.7.3-67.7 3.2-9.5c1.8-5.2 4.9-12.4 7-16 4.7-8 19.8-23.3 27.5-27.9 13.6-7.9 32.5-11.9 47.6-10.1 32.9 4.1 57 25.4 66.5 58.9l2.2 7.6.3 165.3.2 165.2H362v83h203.8l-.2-260.7-.2-260.6-11.5-7.6c-28-18.6-65.1-33.8-97.1-40-61.5-11.8-121.8 3-165.3 40.6l-8.1 7-4.4-3.9C248 21.6 212.9 6.3 171.1 2.1c-11.8-1.2-29.9-1.2-41.6 0"/></svg>
