<?xml version="1.0" standalone="no"?>
<svg xmlns="http://www.w3.org/2000/svg" 
    viewBox="0 0 567 574" width="512" height="512" 
    preserveAspectRatio="xMidYMid meet">
<g transform="translate(0.000000,574.000000) scale(0.100000,-0.100000)" 
fill="#e73a3c" stroke="none">
    <path d="M1295 5719 c-378 -40 -851 -215 -1180 -437 l-100 -68 -3 -2607 -2 -2607 1015 0 1015 0 0 415 0 415 -580 0 -580 0 0 1624 c0 1786 -3 1705 61 1864 119 300 391 484 714 484 316 0 592 -186 711 -480 60 -150 58 -118 62 -844 l3 -667 207 -3 c114 -2 296 -2 404 0 l197 3 3 677 3 677 32 95 c18 52 49 124 70 160 47 80 198 233 275 279 136 79 325 119 476 101 329 -41 570 -254 665 -589 l22 -76 3 -1653 2 -1652 -585 0 -585 0 0 -415 0 -415 1019 0 1019 0 -2 2607 -2 2606 -115 76 c-280 186 -651 338 -971 400 -615 118 -1218 -30 -1653 -406 l-81 -70 -44 39 c-310 272 -661 425 -1079 467 -118 12 -299 12 -416 0z"/>
</g>
</svg>
