<?xml version="1.0" encoding="UTF-8"?>
<svg xmlns="http://www.w3.org/2000/svg" viewBox="0 0 1919 1039" width="100%" height="100%">
  <!-- Elementos principales cambiados a color oscuro (#1A1A1A) para fondos claros -->
  <g transform="translate(0.000000,1039.000000) scale(0.100000,-0.100000)" fill="#1A1A1A" stroke="none">
    <path d="M13510 8489 c-80 -4 -167 -10 -195 -14 l-50 -6 0 -2583 0 -2584 50 -6 c155 -18 539 -26 765 -16 737 32 1306 159 1805 405 674 331 1099 858 1249 1548 l6 27 -414 0 -413 0 -33 -92 c-195 -563 -691 -923 -1420 -1033 -174 -26 -425 -37 -603 -25 -89 5 -164 10 -167 10 -3 0 -5 789 -5 1754 l0 1754 70 6 c334 27 642 7 930 -61 428 -101 769 -308 991 -603 74 -97 178 -299 214 -412 l24 -78 417 0 417 0 -15 68 c-206 917 -882 1530 -1985 1802 -482 119 -1076 169 -1638 139z"/>
    <path d="M2053 6883 l3 -1588 22 -139 c56 -341 162 -647 311 -898 320 -538 825 -870 1466 -964 167 -25 526 -25 683 -1 332 52 620 164 862 335 115 81 313 276 399 392 251 339 404 779 451 1290 6 74 10 664 10 1638 l0 1522 -685 0 -685 0 0 -308 0 -309 62 10 c188 28 378 -75 465 -251 l38 -76 3 -614 c3 -806 -11 -1562 -33 -1697 -64 -402 -191 -683 -402 -886 -238 -230 -560 -330 -957 -298 -328 26 -593 145 -797 356 -221 229 -348 520 -410 938 -17 114 -25 2083 -9 2160 16 79 74 188 129 243 94 94 216 138 357 129 l84 -5 0 304 0 304 -685 0 -686 0 4 -1587z"/>
    <path d="M16400 2459 c-81 -13 -171 -61 -222 -118 -72 -80 -87 -169 -43 -258 50 -100 136 -143 403 -204 191 -43 292 -120 292 -221 0 -65 -18 -105 -70 -152 -145 -131 -384 -121 -595 24 -51 35 -70 37 -85 10 -9 -17 -6 -25 22 -50 50 -46 204 -119 288 -136 169 -36 342 14 444 126 50 55 68 101 68 171 0 44 -7 70 -28 109 -50 92 -140 144 -322 187 -169 40 -233 62 -288 98 -164 107 -76 303 156 345 107 19 197 -2 319 -74 58 -35 79 -43 93 -35 30 16 21 47 -20 73 -78 49 -167 88 -231 102 -74 15 -101 16 -181 3z"/>
    <path d="M2787 2443 c-4 -3 -7 -248 -7 -543 0 -478 2 -539 16 -551 11 -9 20 -10 32 -2 15 9 17 40 20 262 l2 251 244 0 c201 0 246 3 256 15 16 19 4 52 -23 59 -12 3 -124 6 -249 6 l-228 0 0 215 0 215 268 0 c290 0 307 3 300 51 l-3 24 -311 3 c-171 1 -313 -1 -317 -5z"/>
    <path d="M6452 2442 c-10 -7 -12 -123 -10 -547 3 -493 4 -539 20 -548 13 -9 22 -7 37 7 21 19 21 27 21 538 0 339 -4 526 -10 539 -11 20 -36 25 -58 11z"/>
    <path d="M12768 2439 c-17 -9 -18 -46 -18 -544 0 -517 1 -535 19 -545 16 -8 37 -7 53 4 1 0 5 209 8 463 l5 462 175 -244 c96 -134 183 -247 193 -250 11 -4 26 0 36 9 9 9 93 122 187 251 l169 236 5 -463 c3 -255 7 -464 8 -464 16 -11 37 -12 53 -4 18 10 19 28 19 540 0 467 -2 530 -16 544 -19 19 -25 20 -46 4 -9 -7 -102 -134 -208 -281 -156 -218 -195 -266 -205 -255 -6 7 -94 128 -195 268 -168 234 -204 281 -219 280 -3 0 -14 -5 -23 -11z"/>
    <path d="M9647 2433 c-4 -3 -7 -248 -7 -544 0 -522 1 -539 19 -549 12 -6 128 -10 305 -10 274 0 287 1 306 20 16 16 18 25 10 40 -10 19 -22 20 -285 20 l-275 0 0 496 c0 322 -4 502 -10 515 -10 18 -50 26 -63 12z"/>
  </g>
  <!-- Elemento rojo: M (Se mantiene intacto) -->
  <g transform="translate(0.000000,1039.000000) scale(0.100000,-0.100000)" fill="#E5373A" stroke="none">
    <path d="M8193 8989 c-299 -35 -690 -165 -977 -325 -119 -67 -258 -158 -277 -182 -12 -14 -14 -432 -11 -2614 l3 -2598 1015 0 1014 0 0 415 0 415 -580 0 -580 0 2 1653 3 1652 22 80 c13 44 44 123 70 175 39 79 63 111 138 186 100 101 172 146 300 190 115 39 295 45 415 15 282 -70 491 -277 572 -566 22 -78 22 -93 26 -747 l3 -668 404 0 404 0 3 678 c4 671 4 678 26 752 43 139 106 245 207 346 80 81 103 98 195 142 126 61 216 82 347 82 129 0 240 -27 357 -87 73 -38 108 -64 178 -134 73 -74 94 -103 137 -191 28 -56 61 -139 73 -183 l23 -80 3 -1647 3 -1648 -586 0 -585 0 0 -415 0 -415 1020 0 1020 0 -2 2607 -3 2607 -100 68 c-182 123 -474 262 -710 338 -603 193 -1221 131 -1705 -169 -91 -57 -230 -162 -269 -205 -14 -14 -28 -26 -33 -26 -5 0 -43 30 -86 66 -280 239 -639 393 -1014 433 -112 13 -359 12 -465 0z"/>
  </g>
</svg>
