<svg xmlns="http://www.w3.org/2000/svg" viewBox="0 0 1919 1039"><path fill="#1a1a1a" d="M1351 190.1c-8 .4-16.7 1-19.5 1.4l-5 .6v516.7l5 .6c15.5 1.8 53.9 2.6 76.5 1.6 73.7-3.2 130.6-15.9 180.5-40.5 67.4-33.1 109.9-85.8 124.9-154.8l.6-2.7h-82.7l-3.3 9.2c-19.5 56.3-69.1 92.3-142 103.3-17.4 2.6-42.5 3.7-60.3 2.5-8.9-.5-16.4-1-16.7-1s-.5-78.9-.5-175.4V276.2l7-.6c33.4-2.7 64.2-.7 93 6.1 42.8 10.1 76.9 30.8 99.1 60.3 7.4 9.7 17.8 29.9 21.4 41.2l2.4 7.8h83.4l-1.5-6.8c-20.6-91.7-88.2-153-198.5-180.2-48.2-11.9-107.6-16.9-163.8-13.9M205.3 350.7l.3 158.8 2.2 13.9c5.6 34.1 16.2 64.7 31.1 89.8 32 53.8 82.5 87 146.6 96.4 16.7 2.5 52.6 2.5 68.3.1 33.2-5.2 62-16.4 86.2-33.5 11.5-8.1 31.3-27.6 39.9-39.2 25.1-33.9 40.4-77.9 45.1-129 .6-7.4 1-66.4 1-163.8V192H489v61.7l6.2-1c18.8-2.8 37.8 7.5 46.5 25.1l3.8 7.6.3 61.4c.3 80.6-1.1 156.2-3.3 169.7-6.4 40.2-19.1 68.3-40.2 88.6-23.8 23-56 33-95.7 29.8-32.8-2.6-59.3-14.5-79.7-35.6-22.1-22.9-34.8-52-41-93.8-1.7-11.4-2.5-208.3-.9-216 1.6-7.9 7.4-18.8 12.9-24.3 9.4-9.4 21.6-13.8 35.7-12.9l8.4.5V192H204.9zM1640 793.1c-8.1 1.3-17.1 6.1-22.2 11.8-7.2 8-8.7 16.9-4.3 25.8 5 10 13.6 14.3 40.3 20.4 19.1 4.3 29.2 12 29.2 22.1 0 6.5-1.8 10.5-7 15.2-14.5 13.1-38.4 12.1-59.5-2.4-5.1-3.5-7-3.7-8.5-1-.9 1.7-.6 2.5 2.2 5 5 4.6 20.4 11.9 28.8 13.6 16.9 3.6 34.2-1.4 44.4-12.6 5-5.5 6.8-10.1 6.8-17.1 0-4.4-.7-7-2.8-10.9-5-9.2-14-14.4-32.2-18.7-16.9-4-23.3-6.2-28.8-9.8-16.4-10.7-7.6-30.3 15.6-34.5 10.7-1.9 19.7.2 31.9 7.4 5.8 3.5 7.9 4.3 9.3 3.5 3-1.6 2.1-4.7-2-7.3-7.8-4.9-16.7-8.8-23.1-10.2-7.4-1.5-10.1-1.6-18.1-.3m-1361.3 1.6c-.4.3-.7 24.8-.7 54.3 0 47.8.2 53.9 1.6 55.1 1.1.9 2 1 3.2.2 1.5-.9 1.7-4 2-26.2l.2-25.1h24.4c20.1 0 24.6-.3 25.6-1.5 1.6-1.9.4-5.2-2.3-5.9-1.2-.3-12.4-.6-24.9-.6H285v-43h26.8c29 0 30.7-.3 30-5.1l-.3-2.4-31.1-.3c-17.1-.1-31.3.1-31.7.5m366.5.1c-1 .7-1.2 12.3-1 54.7.3 49.3.4 53.9 2 54.8 1.3.9 2.2.7 3.7-.7 2.1-1.9 2.1-2.7 2.1-53.8 0-33.9-.4-52.6-1-53.9-1.1-2-3.6-2.5-5.8-1.1m631.6.3c-1.7.9-1.8 4.6-1.8 54.4 0 51.7.1 53.5 1.9 54.5 1.6.8 3.7.7 5.3-.4.1 0 .5-20.9.8-46.3l.5-46.2 17.5 24.4c9.6 13.4 18.3 24.7 19.3 25 1.1.4 2.6 0 3.6-.9.9-.9 9.3-12.2 18.7-25.1l16.9-23.6.5 46.3c.3 25.5.7 46.4.8 46.4 1.6 1.1 3.7 1.2 5.3.4 1.8-1 1.9-2.8 1.9-54 0-46.7-.2-53-1.6-54.4-1.9-1.9-2.5-2-4.6-.4-.9.7-10.2 13.4-20.8 28.1-15.6 21.8-19.5 26.6-20.5 25.5-.6-.7-9.4-12.8-19.5-26.8-16.8-23.4-20.4-28.1-21.9-28-.3 0-1.4.5-2.3 1.1m-312.1.6c-.4.3-.7 24.8-.7 54.4 0 52.2.1 53.9 1.9 54.9 1.2.6 12.8 1 30.5 1 27.4 0 28.7-.1 30.6-2 1.6-1.6 1.8-2.5 1-4-1-1.9-2.2-2-28.5-2H972v-49.6c0-32.2-.4-50.2-1-51.5-1-1.8-5-2.6-6.3-1.2"/><path fill="#e5373a" d="M819.3 140.1c-29.9 3.5-69 16.5-97.7 32.5-11.9 6.7-25.8 15.8-27.7 18.2-1.2 1.4-1.4 43.2-1.1 261.4l.3 259.8H896v-83H780l.2-165.3.3-165.2 2.2-8c1.3-4.4 4.4-12.3 7-17.5 3.9-7.9 6.3-11.1 13.8-18.6 10-10.1 17.2-14.6 30-19 11.5-3.9 29.5-4.5 41.5-1.5 28.2 7 49.1 27.7 57.2 56.6 2.2 7.8 2.2 9.3 2.6 74.7l.3 66.8h80.8l.3-67.8c.4-67.1.4-67.8 2.6-75.2 4.3-13.9 10.6-24.5 20.7-34.6 8-8.1 10.3-9.8 19.5-14.2 12.6-6.1 21.6-8.2 34.7-8.2 12.9 0 24 2.7 35.7 8.7 7.3 3.8 10.8 6.4 17.8 13.4 7.3 7.4 9.4 10.3 13.7 19.1 2.8 5.6 6.1 13.9 7.3 18.3l2.3 8 .3 164.7.3 164.8H1054v83h204l-.2-260.7-.3-260.7-10-6.8c-18.2-12.3-47.4-26.2-71-33.8-60.3-19.3-122.1-13.1-170.5 16.9-9.1 5.7-23 16.2-26.9 20.5-1.4 1.4-2.8 2.6-3.3 2.6s-4.3-3-8.6-6.6c-28-23.9-63.9-39.3-101.4-43.3-11.2-1.3-35.9-1.2-46.5 0"/></svg>
